<svg aria-hidden="true" style="position: absolute; width: 0; height: 0; overflow: hidden;" version="1.1" xmlns="http://www.w3.org/2000/svg" xmlns:xlink="http://www.w3.org/1999/xlink">
<defs>
<symbol id="icon-notab" viewBox="0 0 123 32">
<path fill="#fff" style="fill: var(--color1, #fff)" d="M17.304 0v16.86l-11.979-16.86h-5.324v31.058h7.099v-16.86l11.979 16.86h5.324v-31.058h-7.099z"></path>
<path fill="#fff" style="fill: var(--color1, #fff)" d="M39.080 31.679c6.522 0 11.758-5.102 11.758-11.713s-5.235-11.713-11.758-11.713c-6.522 0-11.758 5.102-11.758 11.713s5.235 11.713 11.758 11.713zM39.080 25.201c-2.884 0-5.102-2.085-5.102-5.235s2.218-5.235 5.102-5.235 5.102 2.085 5.102 5.235c0 3.15-2.218 5.235-5.102 5.235z"></path>
<path fill="#fff" style="fill: var(--color1, #fff)" d="M74.607 0h-23.072v6.833h7.986v24.225h7.099v-24.225h7.986v-6.833z"></path>
<path fill="#fff" style="fill: var(--color1, #fff)" d="M88.542 8.874v2.085c-1.464-1.686-3.638-2.706-6.611-2.706-5.812 0-10.604 5.102-10.604 11.713s4.792 11.713 10.604 11.713c2.973 0 5.147-1.021 6.611-2.707v2.085h6.655v-22.184h-6.655zM83.262 25.379c-3.061 0-5.28-2.085-5.28-5.413s2.218-5.413 5.28-5.413c3.061 0 5.28 2.085 5.28 5.413s-2.218 5.413-5.28 5.413z"></path>
<path fill="#fff" style="fill: var(--color1, #fff)" d="M112.276 8.253c-2.973 0-5.147 1.020-6.611 2.706v-10.959h-6.655v31.058h6.655v-2.085c1.464 1.686 3.638 2.707 6.611 2.707 5.812 0 10.604-5.102 10.604-11.713s-4.792-11.713-10.604-11.713zM110.945 25.379c-3.061 0-5.28-2.085-5.28-5.413s2.219-5.413 5.28-5.413c3.061 0 5.28 2.085 5.28 5.413s-2.219 5.413-5.28 5.413z"></path>
</symbol>
<symbol id="icon-app-store" viewBox="0 0 101 32">
  <path d="M178.167 1.02701C181.338 1.02701 183.907 3.43932 183.907 6.41622V44.9106C183.907 47.8875 181.338 50.2998 178.167 50.2998H7.33382C4.16315 50.2998 1.59382 47.8875 1.59382 44.9106V6.41622C1.59382 3.43932 4.16315 1.02701 7.33382 1.02701H178.167ZM178.167 0.000488281H7.33382C3.57549 0.000488281 0.500488 2.88757 0.500488 6.41622V44.9106C0.500488 48.4392 3.57549 51.3263 7.33382 51.3263H178.167C181.925 51.3263 185 48.4392 185 44.9106V6.41622C185 2.88757 181.925 0.000488281 178.167 0.000488281Z" fill="white"/>
  <path d="M65.3079 13.1406C65.3079 14.2185 64.9662 15.0782 64.2829 15.7069C63.5175 16.464 62.5062 16.8489 61.2762 16.8489C60.0872 16.8489 59.0895 16.464 58.2559 15.6941C57.4222 14.9242 57.0122 13.9618 57.0122 12.8327C57.0122 11.6907 57.4222 10.7411 58.2559 9.97124C59.0895 9.20135 60.0872 8.81641 61.2762 8.81641C61.8639 8.81641 62.4242 8.91906 62.9572 9.13719C63.4902 9.35533 63.9139 9.63762 64.2419 9.9969L63.5175 10.677C62.9709 10.0739 62.2329 9.76594 61.2762 9.76594C60.4152 9.76594 59.6635 10.0482 59.0349 10.6256C58.4062 11.1902 58.0919 11.9345 58.0919 12.8455C58.0919 13.7565 58.4062 14.5008 59.0349 15.0653C59.6635 15.6299 60.4152 15.925 61.2762 15.925C62.1919 15.925 62.9572 15.6428 63.5722 15.0653C63.9685 14.6932 64.2009 14.1671 64.2555 13.4999H61.2762V12.5632H65.2532C65.2805 12.7685 65.3079 12.961 65.3079 13.1406Z" fill="white" stroke="white" stroke-width="0.256629" stroke-miterlimit="10"/>
  <path d="M71.6079 9.93293H67.8768V12.3709H71.2389V13.2948H67.8768V15.7327H71.6079V16.6823H66.8245V8.9834H71.6079V9.93293Z" fill="white" stroke="white" stroke-width="0.256629" stroke-miterlimit="10"/>
  <path d="M76.0493 16.6823H74.9969V9.93293H72.7009V8.9834H78.3316V9.93293H76.0356V16.6823H76.0493Z" fill="white" stroke="white" stroke-width="0.256629" stroke-miterlimit="10"/>
  <path d="M82.4177 16.6823V8.9834H83.47V16.6823H82.4177Z" fill="white" stroke="white" stroke-width="0.256629" stroke-miterlimit="10"/>
  <path d="M88.145 16.6823H87.0926V9.93293H84.7966V8.9834H90.4273V9.93293H88.1313V16.6823H88.145Z" fill="white" stroke="white" stroke-width="0.256629" stroke-miterlimit="10"/>
  <path d="M101.1 15.6808C100.294 16.4635 99.2962 16.8484 98.0936 16.8484C96.8909 16.8484 95.8933 16.4635 95.0869 15.6808C94.2806 14.898 93.8843 13.9485 93.8843 12.8322C93.8843 11.7158 94.2806 10.7535 95.0869 9.98358C95.8933 9.20086 96.8909 8.81592 98.0936 8.81592C99.2826 8.81592 100.28 9.20086 101.1 9.98358C101.907 10.7663 102.317 11.7158 102.317 12.8322C102.303 13.9613 101.907 14.9109 101.1 15.6808ZM95.8659 15.0392C96.4672 15.6166 97.2189 15.8989 98.0936 15.8989C98.9682 15.8989 99.7199 15.6166 100.321 15.0392C100.923 14.4618 101.237 13.7304 101.237 12.8322C101.237 11.934 100.936 11.2026 100.321 10.6252C99.7199 10.0477 98.9682 9.75262 98.0936 9.75262C97.2189 9.75262 96.4672 10.0349 95.8659 10.6123C95.2646 11.2026 94.9503 11.934 94.9503 12.8322C94.9503 13.7304 95.2646 14.4618 95.8659 15.0392Z" fill="white" stroke="white" stroke-width="0.256629" stroke-miterlimit="10"/>
  <path d="M103.793 16.6823V8.9834H105.078L109.068 14.9757H109.109L109.068 13.4872V8.9834H110.121V16.6823H109.027L104.859 10.4077H104.818L104.859 11.8961V16.6823H103.793Z" fill="white" stroke="white" stroke-width="0.256629" stroke-miterlimit="10"/>
  <path d="M93.6252 27.9087C90.4135 27.9087 87.7895 30.2056 87.7895 33.3621C87.7895 36.5058 90.4135 38.8155 93.6252 38.8155C96.8368 38.8155 99.4608 36.5058 99.4608 33.3621C99.4608 30.2056 96.8368 27.9087 93.6252 27.9087ZM93.6252 36.6726C91.8622 36.6726 90.3452 35.3125 90.3452 33.3621C90.3452 31.3989 91.8622 30.0516 93.6252 30.0516C95.3882 30.0516 96.9052 31.3989 96.9052 33.3621C96.9052 35.3125 95.3745 36.6726 93.6252 36.6726ZM80.8879 27.9087C77.6762 27.9087 75.0522 30.2056 75.0522 33.3621C75.0522 36.5058 77.6762 38.8155 80.8879 38.8155C84.0995 38.8155 86.7235 36.5058 86.7235 33.3621C86.7235 30.2056 84.0995 27.9087 80.8879 27.9087ZM80.8879 36.6726C79.1249 36.6726 77.6079 35.3125 77.6079 33.3621C77.6079 31.3989 79.1249 30.0516 80.8879 30.0516C82.6509 30.0516 84.1679 31.3989 84.1679 33.3621C84.1679 35.3125 82.6509 36.6726 80.8879 36.6726ZM65.7453 29.5896V31.8993H71.6492C71.4716 33.1953 71.0069 34.1577 70.3099 34.8121C69.4489 35.6204 68.1096 36.5058 65.7589 36.5058C62.1236 36.5058 59.2809 33.7599 59.2809 30.3467C59.2809 26.9335 62.1236 24.1876 65.7589 24.1876C67.7133 24.1876 69.1482 24.9062 70.2006 25.8429L71.9362 24.2133C70.4602 22.8916 68.5059 21.8779 65.7453 21.8779C60.7706 21.8779 56.5886 25.676 56.5886 30.3595C56.5886 35.0302 60.7706 38.8411 65.7453 38.8411C68.4376 38.8411 70.4602 38.0199 72.0456 36.4673C73.6719 34.9404 74.1776 32.7847 74.1776 31.0524C74.1776 30.5135 74.1366 30.0131 74.0409 29.6025H65.7453V29.5896ZM127.669 31.3861C127.19 30.1671 125.714 27.9087 122.694 27.9087C119.701 27.9087 117.214 30.1157 117.214 33.3621C117.214 36.416 119.674 38.8155 122.981 38.8155C125.646 38.8155 127.19 37.2885 127.819 36.4032L125.837 35.1585C125.181 36.0695 124.279 36.6726 122.981 36.6726C121.683 36.6726 120.753 36.108 120.166 35.0174L127.942 32.002L127.669 31.3861ZM119.742 33.2081C119.674 31.1038 121.478 30.0259 122.776 30.0259C123.787 30.0259 124.648 30.5007 124.935 31.1808L119.742 33.2081ZM113.428 38.4947H115.984V22.4553H113.428V38.4947ZM109.246 29.1277H109.15C108.576 28.4861 107.483 27.9087 106.089 27.9087C103.178 27.9087 100.513 30.3082 100.513 33.3878C100.513 36.4417 103.178 38.8283 106.089 38.8283C107.469 38.8283 108.576 38.2509 109.15 37.5837H109.232V38.3664C109.232 40.4579 108.043 41.5743 106.13 41.5743C104.572 41.5743 103.602 40.5221 103.205 39.6367L100.978 40.5092C101.62 41.9592 103.315 43.7299 106.13 43.7299C109.123 43.7299 111.651 42.0747 111.651 38.0456V28.2423H109.232V29.1277H109.246ZM106.308 36.6726C104.545 36.6726 103.069 35.2868 103.069 33.3878C103.069 31.463 104.545 30.0644 106.308 30.0644C108.043 30.0644 109.41 31.4759 109.41 33.3878C109.424 35.2868 108.057 36.6726 106.308 36.6726ZM139.641 22.4553H133.532V38.4947H136.087V32.4126H139.654C142.483 32.4126 145.258 30.4879 145.258 27.434C145.258 24.3801 142.456 22.4553 139.641 22.4553ZM139.695 30.1799H136.074V24.6752H139.695C141.609 24.6752 142.688 26.1636 142.688 27.4211C142.688 28.6786 141.609 30.1799 139.695 30.1799ZM155.467 27.8831C153.622 27.8831 151.708 28.653 150.916 30.3339L153.184 31.2192C153.663 30.3339 154.565 30.0388 155.508 30.0388C156.833 30.0388 158.173 30.783 158.186 32.1046V32.2714C157.722 32.0276 156.738 31.6555 155.521 31.6555C153.075 31.6555 150.601 32.913 150.601 35.2612C150.601 37.404 152.597 38.7898 154.838 38.7898C156.546 38.7898 157.503 38.0713 158.091 37.2244H158.173V38.469H160.633V32.3228C160.646 29.4742 158.378 27.8831 155.467 27.8831ZM155.152 36.6726C154.319 36.6726 153.157 36.2749 153.157 35.3125C153.157 34.0807 154.606 33.6059 155.863 33.6059C156.984 33.6059 157.517 33.8369 158.186 34.1448C157.995 35.6204 156.628 36.6726 155.152 36.6726ZM169.612 28.2295L166.687 35.1842H166.605L163.571 28.2295H160.824L165.375 37.9558L162.778 43.3578H165.443L172.454 28.2295H169.612ZM146.652 38.4947H149.207V22.4553H146.652V38.4947Z" fill="white"/>
  <path d="M14.7686 9.67527C14.3722 10.073 14.1399 10.689 14.1399 11.4717V39.8549C14.1399 40.6505 14.3722 41.2664 14.7686 41.6513L14.8642 41.7412L31.7972 25.8558V25.6633V25.4708L14.8642 9.58545L14.7686 9.67527Z" fill="url(#paint0_linear_479_2314)"/>
  <path d="M37.4435 31.1552L31.7991 25.8558V25.6633V25.4708L37.4435 20.1714L37.5665 20.2355L44.2495 23.8027C46.1629 24.8164 46.1629 26.4845 44.2495 27.511L37.5665 31.0782L37.4435 31.1552Z" fill="url(#paint1_linear_479_2314)"/>
  <path d="M37.5657 31.0913L31.7984 25.6636L14.7698 41.6516C15.3984 42.2803 16.4371 42.3573 17.6124 41.7286L37.5657 31.0913Z" fill="url(#paint2_linear_479_2314)"/>
  <path d="M37.5651 20.2485L17.5983 9.5984C16.4229 8.96966 15.3843 9.04665 14.7556 9.67539L31.7978 25.6634L37.5651 20.2485Z" fill="url(#paint3_linear_479_2314)"/>
  <path opacity="0.2" d="M37.4414 30.9629L17.5975 41.5488C16.4905 42.1391 15.4929 42.1006 14.8642 41.5617L14.7686 41.6515L14.8642 41.7413C15.5066 42.2802 16.4905 42.3187 17.5975 41.7285L37.5644 31.0784L37.4414 30.9629Z" fill="black"/>
  <path opacity="0.12" d="M14.7674 41.4717C14.371 41.0739 14.1387 40.458 14.1387 39.6753V39.8678C14.1387 40.6633 14.371 41.2792 14.7674 41.6642L14.8631 41.5743L14.7674 41.4717Z" fill="black"/>
  <path opacity="0.12" d="M44.2489 27.3317L37.4292 30.9629L37.5522 31.0784L44.2352 27.5113C45.1919 26.998 45.6702 26.3308 45.6702 25.6636C45.6019 26.2666 45.1235 26.8697 44.2489 27.3317Z" fill="black"/>
  <path opacity="0.25" d="M17.5983 9.77903L44.2484 23.9963C45.1094 24.4582 45.6014 25.0485 45.6834 25.6644C45.6834 24.9971 45.205 24.3171 44.2484 23.8167L17.5983 9.59939C15.685 8.58571 14.127 9.43258 14.127 11.4856V11.6781C14.127 9.61223 15.6986 8.76535 17.5983 9.77903Z" fill="white"/>
  <defs>
    <linearGradient id="paint0_linear_479_2314" x1="30.2934" y1="11.1763" x2="8.80179" y2="34.0667" gradientUnits="userSpaceOnUse">
      <stop stop-color="#00A0FF"/>
      <stop offset="0.00657445" stop-color="#00A1FF"/>
      <stop offset="0.2601" stop-color="#00BEFF"/>
      <stop offset="0.5122" stop-color="#00D2FF"/>
      <stop offset="0.7604" stop-color="#00DFFF"/>
      <stop offset="1" stop-color="#00E3FF"/>
    </linearGradient>
    <linearGradient id="paint1_linear_479_2314" x1="46.7427" y1="25.6652" x2="13.6734" y2="25.6652" gradientUnits="userSpaceOnUse">
      <stop stop-color="#FFE000"/>
      <stop offset="0.4087" stop-color="#FFBD00"/>
      <stop offset="0.7754" stop-color="#FFA500"/>
      <stop offset="1" stop-color="#FF9C00"/>
    </linearGradient>
    <linearGradient id="paint2_linear_479_2314" x1="34.4318" y1="28.6099" x2="5.28748" y2="59.6511" gradientUnits="userSpaceOnUse">
      <stop stop-color="#FF3A44"/>
      <stop offset="1" stop-color="#C31162"/>
    </linearGradient>
    <linearGradient id="paint3_linear_479_2314" x1="10.4742" y1="0.226677" x2="23.4884" y2="14.0878" gradientUnits="userSpaceOnUse">
      <stop stop-color="#32A071"/>
      <stop offset="0.0685" stop-color="#2DA771"/>
      <stop offset="0.4762" stop-color="#15CF74"/>
      <stop offset="0.8009" stop-color="#06E775"/>
      <stop offset="1" stop-color="#00F076"/>
    </linearGradient>
  </defs>
</symbol>
<symbol id="icon-Ellipse-93" viewBox="0 0 31 32">
<path fill="#605cea" style="fill: var(--color2, #605cea)" opacity="0.5" d="M21.465 16c0 3.399-2.755 6.154-6.154 6.154s-6.154-2.755-6.154-6.154c0-3.399 2.755-6.154 6.154-6.154s6.154 2.755 6.154 6.154z"></path>
</symbol>
<symbol id="icon-Ellipse-94" viewBox="0 0 32 32">
<path fill="#f101bf" style="fill: var(--color3, #f101bf)" opacity="0.7" d="M20.772 16c0 2.635-2.136 4.772-4.772 4.772s-4.772-2.136-4.772-4.772c0-2.635 2.136-4.772 4.772-4.772s4.772 2.136 4.772 4.772z"></path>
</symbol>
<symbol id="icon-google-pay" viewBox="0 0 114 32">
<path fill="#fff" style="fill: var(--color1, #fff)" d="M109.641 0.632c1.951 0 3.532 1.484 3.532 3.316v23.689c0 1.832-1.581 3.316-3.532 3.316h-105.128c-1.951 0-3.532-1.485-3.532-3.316v-23.689c0-1.832 1.581-3.316 3.532-3.316h105.128zM109.641 0h-105.128c-2.313 0-4.205 1.777-4.205 3.948v23.689c0 2.171 1.892 3.948 4.205 3.948h105.128c2.313 0 4.205-1.777 4.205-3.948v-23.689c0-2.171-1.892-3.948-4.205-3.948z"></path>
<path fill="#fff" style="fill: var(--color1, #fff)" d="M40.189 8.087c0 0.663-0.21 1.192-0.631 1.579-0.471 0.466-1.093 0.703-1.85 0.703-0.732 0-1.346-0.237-1.859-0.711s-0.765-1.066-0.765-1.761c0-0.703 0.252-1.287 0.765-1.761s1.127-0.711 1.859-0.711c0.362 0 0.706 0.063 1.034 0.197s0.589 0.308 0.791 0.529l-0.446 0.419c-0.336-0.371-0.791-0.561-1.379-0.561-0.53 0-0.992 0.174-1.379 0.529-0.387 0.347-0.58 0.805-0.58 1.366s0.193 1.019 0.58 1.366c0.387 0.347 0.849 0.529 1.379 0.529 0.563 0 1.034-0.174 1.413-0.529 0.244-0.229 0.387-0.553 0.42-0.963h-1.833v-0.576h2.447c0.017 0.126 0.034 0.245 0.034 0.355z"></path>
<path fill="#fff" style="fill: var(--color1, #fff)" d="M44.066 6.113h-2.296v1.5h2.069v0.569h-2.069v1.5h2.296v0.584h-2.944v-4.738h2.944v0.584z"></path>
<path fill="#fff" style="fill: var(--color1, #fff)" d="M46.8 10.266h-0.648v-4.153h-1.413v-0.584h3.465v0.584h-1.413v4.153h0.008z"></path>
<path fill="#fff" style="fill: var(--color1, #fff)" d="M50.719 10.266v-4.738h0.648v4.738h-0.648z"></path>
<path fill="#fff" style="fill: var(--color1, #fff)" d="M54.243 10.266h-0.648v-4.153h-1.413v-0.584h3.465v0.584h-1.413v4.153h0.008z"></path>
<path fill="#fff" style="fill: var(--color1, #fff)" d="M62.215 9.65c-0.496 0.482-1.11 0.719-1.85 0.719s-1.354-0.237-1.85-0.719c-0.496-0.482-0.74-1.066-0.74-1.753s0.244-1.279 0.74-1.753c0.496-0.482 1.11-0.719 1.85-0.719 0.732 0 1.345 0.237 1.85 0.719 0.497 0.482 0.749 1.066 0.749 1.753-0.009 0.695-0.252 1.279-0.749 1.753zM58.994 9.255c0.37 0.355 0.833 0.529 1.371 0.529s1.001-0.174 1.371-0.529c0.37-0.355 0.564-0.805 0.564-1.358s-0.185-1.003-0.564-1.358c-0.37-0.355-0.833-0.537-1.371-0.537s-1.001 0.174-1.371 0.529c-0.37 0.363-0.563 0.813-0.563 1.366s0.193 1.003 0.563 1.358z"></path>
<path fill="#fff" style="fill: var(--color1, #fff)" d="M63.873 10.266v-4.738h0.791l2.455 3.688h0.025l-0.025-0.916v-2.772h0.648v4.738h-0.673l-2.565-3.861h-0.025l0.025 0.916v2.945h-0.656z"></path>
<path fill="#fff" style="fill: var(--color1, #fff)" d="M57.615 17.175c-1.976 0-3.591 1.413-3.591 3.356 0 1.935 1.615 3.356 3.591 3.356s3.591-1.421 3.591-3.356c0-1.942-1.615-3.356-3.591-3.356zM57.615 22.568c-1.085 0-2.018-0.837-2.018-2.037 0-1.208 0.934-2.037 2.018-2.037s2.018 0.829 2.018 2.037c0 1.2-0.942 2.037-2.018 2.037zM49.777 17.175c-1.976 0-3.591 1.413-3.591 3.356 0 1.935 1.615 3.356 3.591 3.356s3.591-1.421 3.591-3.356c0-1.942-1.615-3.356-3.591-3.356zM49.777 22.568c-1.085 0-2.018-0.837-2.018-2.037 0-1.208 0.934-2.037 2.018-2.037s2.018 0.829 2.018 2.037c0 1.2-0.934 2.037-2.018 2.037zM40.459 18.209v1.421h3.633c-0.109 0.798-0.395 1.39-0.824 1.793-0.53 0.497-1.354 1.042-2.801 1.042-2.237 0-3.986-1.69-3.986-3.79s1.749-3.79 3.986-3.79c1.203 0 2.086 0.442 2.733 1.019l1.068-1.003c-0.908-0.813-2.111-1.437-3.81-1.437-3.061 0-5.635 2.337-5.635 5.219 0 2.874 2.574 5.219 5.635 5.219 1.657 0 2.901-0.505 3.877-1.461 1.001-0.94 1.312-2.266 1.312-3.332 0-0.332-0.025-0.64-0.084-0.892h-5.105v-0.008zM78.566 19.315c-0.295-0.75-1.203-2.14-3.062-2.14-1.842 0-3.372 1.358-3.372 3.356 0 1.879 1.514 3.356 3.549 3.356 1.64 0 2.59-0.94 2.977-1.485l-1.22-0.766c-0.404 0.561-0.959 0.932-1.758 0.932s-1.371-0.347-1.732-1.019l4.785-1.856-0.168-0.379zM73.687 20.436c-0.042-1.295 1.068-1.958 1.867-1.958 0.622 0 1.152 0.292 1.329 0.711l-3.196 1.248zM69.802 23.689h1.573v-9.87h-1.573v9.87zM67.228 17.925h-0.059c-0.353-0.395-1.026-0.75-1.884-0.75-1.791 0-3.431 1.477-3.431 3.372 0 1.879 1.64 3.348 3.431 3.348 0.849 0 1.53-0.355 1.884-0.766h0.050v0.482c0 1.287-0.732 1.974-1.909 1.974-0.959 0-1.556-0.648-1.8-1.192l-1.37 0.537c0.395 0.892 1.438 1.982 3.17 1.982 1.842 0 3.398-1.019 3.398-3.498v-6.033h-1.489v0.545h0.009zM65.42 22.568c-1.085 0-1.993-0.853-1.993-2.021 0-1.184 0.908-2.045 1.993-2.045 1.068 0 1.909 0.869 1.909 2.045 0.009 1.169-0.833 2.021-1.909 2.021zM85.933 13.819h-3.759v9.87h1.572v-3.743h2.195c1.741 0 3.449-1.184 3.449-3.064s-1.724-3.064-3.457-3.064zM85.966 18.572h-2.228v-3.387h2.228c1.178 0 1.842 0.916 1.842 1.69s-0.664 1.698-1.842 1.698zM95.672 17.159c-1.135 0-2.313 0.474-2.801 1.508l1.396 0.545c0.295-0.545 0.85-0.726 1.43-0.726 0.815 0 1.64 0.458 1.648 1.271v0.103c-0.286-0.15-0.891-0.379-1.64-0.379-1.505 0-3.028 0.774-3.028 2.219 0 1.319 1.228 2.171 2.607 2.171 1.051 0 1.64-0.442 2.002-0.963h0.050v0.766h1.514v-3.782c0.008-1.753-1.388-2.732-3.179-2.732zM95.478 22.568c-0.513 0-1.228-0.245-1.228-0.837 0-0.758 0.892-1.050 1.665-1.050 0.69 0 1.018 0.142 1.43 0.332-0.118 0.908-0.959 1.556-1.867 1.556zM104.377 17.372l-1.8 4.28h-0.050l-1.867-4.28h-1.69l2.801 5.985-1.598 3.324h1.64l4.314-9.31h-1.749zM90.247 23.689h1.572v-9.87h-1.572v9.87z"></path>
<path fill="#000" style="fill: var(--color4, #000)" d="M9.088 5.954c-0.244 0.245-0.387 0.624-0.387 1.106v17.467c0 0.49 0.143 0.869 0.387 1.105l0.059 0.055 10.42-9.776v-0.237l-10.42-9.776-0.059 0.055z"></path>
<path fill="#000" style="fill: var(--color4, #000)" d="M23.042 19.172l-3.473-3.261v-0.237l3.473-3.261 0.076 0.039 4.113 2.195c1.177 0.624 1.177 1.65 0 2.282l-4.113 2.195-0.076 0.047z"></path>
<path fill="#000" style="fill: var(--color4, #000)" d="M23.117 19.133l-3.549-3.34-10.479 9.839c0.387 0.387 1.026 0.434 1.749 0.047l12.279-6.546z"></path>
<path fill="#000" style="fill: var(--color4, #000)" d="M23.117 12.461l-12.287-6.554c-0.723-0.387-1.362-0.34-1.749 0.047l10.487 9.839 3.549-3.332z"></path>
<path fill="#000" style="fill: var(--color4, #000)" opacity="0.2" d="M23.041 19.054l-12.212 6.514c-0.681 0.363-1.295 0.34-1.682 0.008l-0.059 0.055 0.059 0.055c0.395 0.332 1.001 0.355 1.682-0.008l12.287-6.554-0.076-0.071z"></path>
<path fill="#000" style="fill: var(--color4, #000)" opacity="0.12" d="M9.088 25.521c-0.244-0.245-0.387-0.624-0.387-1.105v0.118c0 0.49 0.143 0.869 0.387 1.105l0.059-0.055-0.059-0.063z"></path>
<path fill="#000" style="fill: var(--color4, #000)" opacity="0.12" d="M27.23 16.82l-4.197 2.235 0.076 0.071 4.113-2.195c0.589-0.316 0.883-0.726 0.883-1.137-0.042 0.371-0.336 0.742-0.875 1.027z"></path>
<path fill="#fff" style="fill: var(--color1, #fff)" opacity="0.25" d="M10.83 6.018l16.4 8.749c0.53 0.284 0.833 0.648 0.883 1.027 0-0.411-0.294-0.829-0.883-1.137l-16.4-8.749c-1.177-0.624-2.136-0.103-2.136 1.161v0.118c0-1.271 0.967-1.792 2.136-1.169z"></path>
</symbol>
<symbol id="icon-Group-574" viewBox="0 0 33 32">
<path fill="#fff" style="fill: var(--color1, #fff)" d="M16.642 0c-9.191 0-16.642 7.161-16.642 15.994s7.451 15.994 16.642 15.994c0.501 0 1.001-0.022 1.498-0.064 0.462-0.040 0.92-0.101 1.375-0.177l0.175-0.030c8.45-1.516 14.309-8.967 13.519-17.193s-7.97-14.521-16.566-14.523v0zM15.305 30.865h-0.039c-0.431-0.037-0.86-0.092-1.284-0.163-0.024-0.004-0.049-0.007-0.073-0.011-0.415-0.071-0.826-0.16-1.232-0.263l-0.098-0.024c-0.397-0.103-0.789-0.223-1.175-0.357-0.040-0.014-0.080-0.026-0.121-0.040-0.379-0.134-0.751-0.284-1.118-0.446-0.046-0.020-0.091-0.038-0.137-0.059-0.359-0.16-0.712-0.34-1.057-0.53-0.049-0.026-0.098-0.053-0.147-0.079-0.34-0.191-0.673-0.395-0.999-0.611-0.049-0.033-0.099-0.065-0.148-0.098-0.32-0.218-0.633-0.45-0.937-0.693l-0.084-0.070v-4.495c0.004-3.237 2.734-5.86 6.102-5.864h7.766c3.369 0.004 6.098 2.627 6.102 5.864v4.495l-0.074 0.059c-0.31 0.249-0.628 0.484-0.955 0.706-0.043 0.029-0.087 0.057-0.13 0.086-0.33 0.22-0.668 0.427-1.014 0.622-0.043 0.024-0.088 0.047-0.131 0.071-0.351 0.192-0.708 0.373-1.071 0.536-0.042 0.019-0.084 0.036-0.126 0.053-0.369 0.164-0.745 0.314-1.127 0.449-0.038 0.014-0.076 0.025-0.111 0.038-0.388 0.134-0.782 0.255-1.181 0.359l-0.096 0.023c-0.407 0.103-0.818 0.192-1.234 0.264-0.024 0.004-0.048 0.007-0.072 0.011-0.425 0.071-0.854 0.127-1.285 0.164h-0.039c-0.444 0.037-0.888 0.056-1.337 0.056s-0.897-0.016-1.34-0.053zM27.737 26.431v-3.507c-0.005-3.826-3.231-6.926-7.212-6.931h-7.766c-3.981 0.004-7.207 3.105-7.212 6.931v3.506c-5.975-5.86-5.908-15.257 0.149-21.038s15.834-5.782 21.892 0c6.057 5.782 6.124 15.178 0.149 21.038v0z"></path>
<path fill="#fff" style="fill: var(--color1, #fff)" d="M16.642 4.265c-3.064 0-5.547 2.387-5.547 5.331s2.484 5.331 5.547 5.331c3.064 0 5.548-2.387 5.548-5.331-0.003-2.943-2.485-5.328-5.548-5.331zM16.642 13.861c-2.451 0-4.438-1.909-4.438-4.265s1.987-4.265 4.438-4.265c2.451 0 4.438 1.909 4.438 4.265-0.003 2.354-1.988 4.262-4.438 4.265z"></path>
</symbol>
<symbol id="icon-Vector-3" viewBox="0 0 38 32">
<path fill="#fa00ff" style="fill: var(--color5, #fa00ff)" opacity="0.2" d="M28.085 17.277c-3.482-5.638-12.635-6.335-16.777-5.979-3.388-2.415-0.984-3.608 2.971-8.026s13.411-1.847 18.88-1.81c5.469 0.036 10.139 11.666 9.399 16.763s-10.121 6.099-14.473-0.948z"></path>
</symbol>
</defs>
</svg>
