<svg aria-hidden="true" style="position: absolute; width: 0; height: 0; overflow: hidden;" version="1.1" xmlns="http://www.w3.org/2000/svg" xmlns:xlink="http://www.w3.org/1999/xlink">
<defs>
<symbol id="icon-ellipse" viewBox="0 0 31 32">
<path fill="#605cea" style="fill: var(--color1, #605cea)" opacity="0.5" d="M21.465 16c0 3.399-2.755 6.154-6.154 6.154s-6.154-2.755-6.154-6.154c0-3.399 2.755-6.154 6.154-6.154s6.154 2.755 6.154 6.154z"></path>
</symbol>
<symbol id="icon-Group-216" viewBox="0 0 123 32">
<path fill="#fff" style="fill: var(--color2, #fff)" d="M17.304 0v16.86l-11.979-16.86h-5.324v31.058h7.099v-16.86l11.979 16.86h5.324v-31.058h-7.099z"></path>
<path fill="#fff" style="fill: var(--color2, #fff)" d="M39.080 31.679c6.522 0 11.758-5.102 11.758-11.713s-5.235-11.713-11.758-11.713c-6.522 0-11.758 5.102-11.758 11.713s5.235 11.713 11.758 11.713zM39.080 25.201c-2.884 0-5.102-2.085-5.102-5.235s2.218-5.235 5.102-5.235 5.102 2.085 5.102 5.235c0 3.15-2.218 5.235-5.102 5.235z"></path>
<path fill="#fff" style="fill: var(--color2, #fff)" d="M74.607 0h-23.072v6.833h7.986v24.225h7.099v-24.225h7.986v-6.833z"></path>
<path fill="#fff" style="fill: var(--color2, #fff)" d="M88.542 8.874v2.085c-1.464-1.686-3.638-2.706-6.611-2.706-5.812 0-10.604 5.102-10.604 11.713s4.792 11.713 10.604 11.713c2.973 0 5.147-1.021 6.611-2.707v2.085h6.655v-22.184h-6.655zM83.262 25.379c-3.061 0-5.28-2.085-5.28-5.413s2.218-5.413 5.28-5.413c3.061 0 5.28 2.085 5.28 5.413s-2.218 5.413-5.28 5.413z"></path>
<path fill="#fff" style="fill: var(--color2, #fff)" d="M112.276 8.253c-2.973 0-5.147 1.020-6.611 2.706v-10.959h-6.655v31.058h6.655v-2.085c1.464 1.686 3.638 2.707 6.611 2.707 5.812 0 10.604-5.102 10.604-11.713s-4.792-11.713-10.604-11.713zM110.945 25.379c-3.061 0-5.28-2.085-5.28-5.413s2.219-5.413 5.28-5.413c3.061 0 5.28 2.085 5.28 5.413s-2.219 5.413-5.28 5.413z"></path>
</symbol>
<symbol id="icon-Group-574" viewBox="0 0 33 32">
<path fill="#fff" style="fill: var(--color2, #fff)" d="M16.642 0c-9.191 0-16.642 7.161-16.642 15.994s7.451 15.994 16.642 15.994c0.501 0 1.001-0.022 1.498-0.064 0.462-0.040 0.92-0.101 1.375-0.177l0.175-0.030c8.45-1.516 14.309-8.967 13.519-17.193s-7.97-14.521-16.566-14.523v0zM15.305 30.865h-0.039c-0.431-0.037-0.86-0.092-1.284-0.163-0.024-0.004-0.049-0.007-0.073-0.011-0.415-0.071-0.826-0.16-1.232-0.263l-0.098-0.024c-0.397-0.103-0.789-0.223-1.175-0.357-0.040-0.014-0.080-0.026-0.121-0.040-0.379-0.134-0.751-0.284-1.118-0.446-0.046-0.020-0.091-0.038-0.137-0.059-0.359-0.16-0.712-0.34-1.057-0.53-0.049-0.026-0.098-0.053-0.147-0.079-0.34-0.191-0.673-0.395-0.999-0.611-0.049-0.033-0.099-0.065-0.148-0.098-0.32-0.218-0.633-0.45-0.937-0.693l-0.084-0.070v-4.495c0.004-3.237 2.734-5.86 6.102-5.864h7.766c3.369 0.004 6.098 2.627 6.102 5.864v4.495l-0.074 0.059c-0.31 0.249-0.628 0.484-0.955 0.706-0.043 0.029-0.087 0.057-0.13 0.086-0.33 0.22-0.668 0.427-1.014 0.622-0.043 0.024-0.088 0.047-0.131 0.071-0.351 0.192-0.708 0.373-1.071 0.536-0.042 0.019-0.084 0.036-0.126 0.053-0.369 0.164-0.745 0.314-1.127 0.449-0.038 0.014-0.076 0.025-0.111 0.038-0.388 0.134-0.782 0.255-1.181 0.359l-0.096 0.023c-0.407 0.103-0.818 0.192-1.234 0.264-0.024 0.004-0.048 0.007-0.072 0.011-0.425 0.071-0.854 0.127-1.285 0.164h-0.039c-0.444 0.037-0.888 0.056-1.337 0.056s-0.897-0.016-1.34-0.053zM27.737 26.431v-3.507c-0.005-3.826-3.231-6.926-7.212-6.931h-7.766c-3.981 0.004-7.207 3.105-7.212 6.931v3.506c-5.975-5.86-5.908-15.257 0.149-21.038s15.834-5.782 21.892 0c6.057 5.782 6.124 15.178 0.149 21.038v0z"></path>
<path fill="#fff" style="fill: var(--color2, #fff)" d="M16.642 4.265c-3.064 0-5.547 2.387-5.547 5.331s2.484 5.331 5.547 5.331c3.064 0 5.548-2.387 5.548-5.331-0.003-2.943-2.485-5.328-5.548-5.331zM16.642 13.861c-2.451 0-4.438-1.909-4.438-4.265s1.987-4.265 4.438-4.265c2.451 0 4.438 1.909 4.438 4.265-0.003 2.354-1.988 4.262-4.438 4.265z"></path>
</symbol>
<symbol id="icon-Group" viewBox="0 0 101 32">
<path fill="#fff" style="fill: var(--color2, #fff)" d="M20.832 16.030c-0.025-2.171 1.892-3.23 1.985-3.277-1.085-1.485-2.767-1.69-3.356-1.706-1.413-0.142-2.784 0.79-3.499 0.79-0.732 0-1.842-0.782-3.036-0.758-1.539 0.024-2.977 0.861-3.759 2.156-1.623 2.645-0.412 6.53 1.144 8.67 0.782 1.050 1.691 2.219 2.885 2.171 1.169-0.047 1.606-0.695 3.011-0.695 1.396 0 1.8 0.695 3.019 0.671 1.253-0.016 2.044-1.050 2.792-2.108 0.9-1.2 1.262-2.385 1.278-2.44-0.042-0.008-2.439-0.869-2.464-3.474z"></path>
<path fill="#fff" style="fill: var(--color2, #fff)" d="M18.537 9.642c0.631-0.734 1.060-1.737 0.934-2.756-0.908 0.039-2.044 0.592-2.7 1.311-0.58 0.632-1.093 1.674-0.959 2.653 1.018 0.071 2.069-0.482 2.725-1.208z"></path>
<path fill="#fff" style="fill: var(--color2, #fff)" d="M35.575 21.431h-3.978l-0.959 2.653h-1.682l3.768-9.807h1.749l3.768 9.807h-1.716l-0.95-2.653zM32.009 20.207h3.154l-1.556-4.303h-0.042l-1.556 4.303z"></path>
<path fill="#fff" style="fill: var(--color2, #fff)" d="M46.391 20.507c0 2.219-1.27 3.648-3.179 3.648-1.085 0-1.943-0.458-2.397-1.248h-0.034v3.538h-1.564v-9.515h1.514v1.192h0.025c0.437-0.766 1.362-1.263 2.422-1.263 1.943 0 3.213 1.429 3.213 3.648zM44.785 20.507c0-1.445-0.799-2.4-2.010-2.4-1.194 0-2.002 0.971-2.002 2.4 0 1.437 0.807 2.408 2.002 2.408 1.211 0 2.010-0.948 2.010-2.408z"></path>
<path fill="#fff" style="fill: var(--color2, #fff)" d="M54.768 20.507c0 2.219-1.27 3.648-3.179 3.648-1.085 0-1.943-0.458-2.397-1.248h-0.034v3.538h-1.556v-9.515h1.514v1.192h0.025c0.437-0.766 1.362-1.263 2.422-1.263 1.934 0 3.204 1.429 3.204 3.648zM53.161 20.507c0-1.445-0.799-2.4-2.010-2.4-1.194 0-2.002 0.971-2.002 2.4 0 1.437 0.807 2.408 2.002 2.408 1.219 0 2.010-0.948 2.010-2.408z"></path>
<path fill="#fff" style="fill: var(--color2, #fff)" d="M60.31 21.352c0.118 0.971 1.119 1.611 2.498 1.611 1.321 0 2.262-0.64 2.262-1.516 0-0.758-0.572-1.216-1.926-1.532l-1.354-0.308c-1.917-0.434-2.809-1.279-2.809-2.645 0-1.69 1.573-2.851 3.801-2.851 2.204 0 3.718 1.161 3.768 2.851h-1.582c-0.092-0.979-0.959-1.571-2.212-1.571s-2.119 0.6-2.119 1.469c0 0.695 0.547 1.098 1.892 1.413l1.152 0.268c2.145 0.474 3.036 1.287 3.036 2.716 0 1.832-1.556 2.985-4.028 2.985-2.313 0-3.877-1.121-3.978-2.898h1.598v0.008z"></path>
<path fill="#fff" style="fill: var(--color2, #fff)" d="M70.099 15.24v1.69h1.446v1.161h-1.446v3.94c0 0.616 0.286 0.9 0.925 0.9 0.16 0 0.412-0.024 0.513-0.032v1.153c-0.177 0.039-0.522 0.071-0.866 0.071-1.539 0-2.145-0.545-2.145-1.927v-4.098h-1.11v-1.161h1.11v-1.698h1.573z"></path>
<path fill="#fff" style="fill: var(--color2, #fff)" d="M72.378 20.507c0-2.25 1.413-3.664 3.608-3.664 2.204 0 3.608 1.413 3.608 3.664 0 2.258-1.396 3.664-3.608 3.664-2.203 0-3.608-1.406-3.608-3.664zM78.014 20.507c0-1.54-0.757-2.456-2.018-2.456s-2.018 0.916-2.018 2.456c0 1.548 0.748 2.456 2.018 2.456s2.018-0.908 2.018-2.456z"></path>
<path fill="#fff" style="fill: var(--color2, #fff)" d="M80.898 16.93h1.489v1.216h0.034c0.236-0.805 0.934-1.295 1.833-1.295 0.227 0 0.412 0.032 0.538 0.055v1.374c-0.126-0.047-0.395-0.087-0.698-0.087-1.009 0-1.632 0.64-1.632 1.642v4.24h-1.564v-7.146z"></path>
<path fill="#fff" style="fill: var(--color2, #fff)" d="M91.991 21.983c-0.21 1.295-1.556 2.187-3.28 2.187-2.212 0-3.591-1.39-3.591-3.632s1.38-3.695 3.524-3.695c2.102 0 3.431 1.358 3.431 3.53v0.505h-5.374v0.087c0 1.224 0.815 2.021 2.052 2.021 0.866 0 1.548-0.387 1.758-1.003h1.48zM86.709 19.843h3.81c-0.033-1.098-0.782-1.816-1.867-1.816-1.076 0.008-1.858 0.742-1.943 1.816z"></path>
<path fill="#fff" style="fill: var(--color2, #fff)" d="M31.816 6.894c1.489 0 2.363 0.861 2.363 2.337 0 1.508-0.866 2.369-2.363 2.369h-1.817v-4.706h1.817zM30.781 10.937h0.942c1.051 0 1.657-0.616 1.657-1.698 0-1.066-0.614-1.682-1.657-1.682h-0.942v3.38z"></path>
<path fill="#fff" style="fill: var(--color2, #fff)" d="M35.054 9.823c0-1.145 0.681-1.848 1.783-1.848s1.783 0.695 1.783 1.848c0 1.153-0.681 1.848-1.783 1.848s-1.783-0.695-1.783-1.848zM37.855 9.823c0-0.774-0.37-1.224-1.018-1.224s-1.018 0.45-1.018 1.224 0.362 1.224 1.018 1.224c0.656 0 1.018-0.45 1.018-1.224z"></path>
<path fill="#fff" style="fill: var(--color2, #fff)" d="M43.372 11.608h-0.774l-0.782-2.622h-0.059l-0.782 2.622h-0.765l-1.043-3.553h0.757l0.681 2.716h0.059l0.782-2.716h0.715l0.782 2.716h0.059l0.673-2.716h0.748l-1.051 3.553z"></path>
<path fill="#fff" style="fill: var(--color2, #fff)" d="M45.289 8.047h0.723v0.569h0.059c0.185-0.395 0.563-0.632 1.127-0.632 0.841 0 1.312 0.474 1.312 1.319v2.306h-0.748v-2.124c0-0.569-0.261-0.853-0.816-0.853s-0.908 0.347-0.908 0.9v2.077h-0.749v-3.561z"></path>
<path fill="#fff" style="fill: var(--color2, #fff)" d="M49.696 6.665h0.749v4.943h-0.749v-4.943z"></path>
<path fill="#fff" style="fill: var(--color2, #fff)" d="M51.488 9.823c0-1.145 0.681-1.848 1.783-1.848s1.783 0.695 1.783 1.848c0 1.153-0.681 1.848-1.783 1.848-1.11 0-1.783-0.695-1.783-1.848zM54.289 9.823c0-0.774-0.37-1.224-1.018-1.224s-1.018 0.45-1.018 1.224c0 0.774 0.362 1.224 1.018 1.224 0.648 0 1.018-0.45 1.018-1.224z"></path>
<path fill="#fff" style="fill: var(--color2, #fff)" d="M55.844 10.597c0-0.64 0.505-1.011 1.404-1.058l1.026-0.055v-0.308c0-0.379-0.261-0.584-0.774-0.584-0.42 0-0.706 0.142-0.791 0.395h-0.723c0.076-0.608 0.69-1.003 1.547-1.003 0.95 0 1.489 0.442 1.489 1.192v2.432h-0.723v-0.497h-0.059c-0.227 0.355-0.639 0.561-1.135 0.561-0.732-0.008-1.262-0.419-1.262-1.074zM58.283 10.297v-0.3l-0.925 0.055c-0.521 0.032-0.757 0.197-0.757 0.513 0 0.324 0.294 0.505 0.698 0.505 0.563 0 0.984-0.332 0.984-0.774z"></path>
<path fill="#fff" style="fill: var(--color2, #fff)" d="M60.007 9.823c0-1.121 0.614-1.832 1.573-1.832 0.521 0 0.959 0.229 1.161 0.624h0.059v-1.95h0.748v4.943h-0.723v-0.561h-0.059c-0.227 0.387-0.665 0.624-1.186 0.624-0.967-0.008-1.573-0.719-1.573-1.848zM60.781 9.823c0 0.758 0.378 1.208 1.009 1.208s1.017-0.458 1.017-1.208c0-0.742-0.395-1.208-1.017-1.208-0.631 0.008-1.009 0.466-1.009 1.208z"></path>
<path fill="#fff" style="fill: var(--color2, #fff)" d="M66.634 9.823c0-1.145 0.681-1.848 1.783-1.848s1.783 0.695 1.783 1.848c0 1.153-0.681 1.848-1.783 1.848s-1.783-0.695-1.783-1.848zM69.435 9.823c0-0.774-0.37-1.224-1.018-1.224s-1.018 0.45-1.018 1.224c0 0.774 0.362 1.224 1.018 1.224 0.647 0 1.018-0.45 1.018-1.224z"></path>
<path fill="#fff" style="fill: var(--color2, #fff)" d="M71.21 8.047h0.723v0.569h0.059c0.185-0.395 0.563-0.632 1.127-0.632 0.841 0 1.312 0.474 1.312 1.319v2.306h-0.748v-2.124c0-0.569-0.261-0.853-0.816-0.853s-0.908 0.347-0.908 0.9v2.077h-0.748v-3.561z"></path>
<path fill="#fff" style="fill: var(--color2, #fff)" d="M78.652 7.162v0.9h0.824v0.592h-0.824v1.832c0 0.371 0.16 0.537 0.538 0.537 0.118 0 0.177-0.008 0.286-0.016v0.584c-0.118 0.016-0.26 0.040-0.404 0.040-0.833 0-1.161-0.276-1.161-0.963v-2.006h-0.597v-0.592h0.597v-0.908h0.74z"></path>
<path fill="#fff" style="fill: var(--color2, #fff)" d="M80.486 6.665h0.74v1.958h0.059c0.185-0.395 0.58-0.64 1.152-0.64 0.807 0 1.304 0.482 1.304 1.327v2.298h-0.749v-2.124c0-0.569-0.278-0.853-0.807-0.853-0.614 0-0.95 0.363-0.95 0.9v2.077h-0.748v-4.943z"></path>
<path fill="#fff" style="fill: var(--color2, #fff)" d="M88.105 10.645c-0.168 0.64-0.774 1.027-1.64 1.027-1.085 0-1.749-0.695-1.749-1.832s0.681-1.856 1.749-1.856c1.052 0 1.69 0.679 1.69 1.793v0.245h-2.674v0.040c0.025 0.624 0.412 1.019 1.009 1.019 0.454 0 0.766-0.15 0.9-0.434h0.714zM85.481 9.5h1.91c-0.017-0.561-0.378-0.924-0.934-0.924s-0.934 0.371-0.976 0.924z"></path>
</symbol>
<symbol id="icon-Vector-3" viewBox="0 0 38 32">
<path fill="#fa00ff" style="fill: var(--color3, #fa00ff)" opacity="0.2" d="M28.085 17.277c-3.482-5.638-12.635-6.335-16.777-5.979-3.388-2.415-0.984-3.608 2.971-8.026s13.411-1.847 18.88-1.81c5.469 0.036 10.139 11.666 9.399 16.763s-10.121 6.099-14.473-0.948z"></path>
</symbol>
</defs>
</svg>







<svg class="icon" xmlns="http://www.w3.org/2000/svg" width="991" height="828" viewBox="0 0 991 828" fill="none">
            <g filter="url(#filter0_f_479_2171)">
              <path d="M726.689 447.055C636.6 301.175 399.748 283.135 292.584 292.35C204.911 229.864 267.12 198.986 369.452 84.6792C471.785 -29.6278 716.462 36.8959 857.979 37.8365C999.495 38.777 1120.33 339.695 1101.17 471.585C1082.02 603.476 839.301 629.405 726.689 447.055Z" fill="#FA00FF" fill-opacity="0.2"/>
            </g>
            <defs>
              <filter id="filter0_f_479_2171" x="0.806396" y="-232.258" width="1352.37" height="1059.42" filterUnits="userSpaceOnUse" color-interpolation-filters="sRGB">
                <feFlood flood-opacity="0" result="BackgroundImageFix"/>
                <feBlend mode="normal" in="SourceGraphic" in2="BackgroundImageFix" result="shape"/>
                <feGaussianBlur stdDeviation="125" result="effect1_foregroundBlur_479_2171"/>
              </filter>
            </defs>
          </svg>

<svg xmlns="http://www.w3.org/2000/svg" width="991" height="828" viewBox="0 0 991 828" fill="none">
     <symbol id="vector-rihgt">
            <g filter="url(#filter0_f_479_2171)">
              <path d="M726.689 447.055C636.6 301.175 399.748 283.135 292.584 292.35C204.911 229.864 267.12 198.986 369.452 84.6792C471.785 -29.6278 716.462 36.8959 857.979 37.8365C999.495 38.777 1120.33 339.695 1101.17 471.585C1082.02 603.476 839.301 629.405 726.689 447.055Z" fill="#FA00FF" fill-opacity="0.2"/>
            </g>
            <defs>
              <filter id="filter0_f_479_2171" x="0.806396" y="-232.258" width="1352.37" height="1059.42" filterUnits="userSpaceOnUse" color-interpolation-filters="sRGB">
                <feFlood flood-opacity="0" result="BackgroundImageFix"/>
                <feBlend mode="normal" in="SourceGraphic" in2="BackgroundImageFix" result="shape"/>
                <feGaussianBlur stdDeviation="125" result="effect1_foregroundBlur_479_2171"/>
              </filter>
            </defs>
      </symbol>
        </svg>